<?xml version="1.0" encoding="UTF-8" standalone="no"?>
<svg width="88px" height="75px" viewBox="0 0 88 75" version="1.1" xmlns="http://www.w3.org/2000/svg" xmlns:xlink="http://www.w3.org/1999/xlink">
    <!-- Generator: Sketch 3.7.1 (28215) - http://www.bohemiancoding.com/sketch -->
    <title>Group 4</title>
    <desc>Created with Sketch.</desc>
    <defs>
        <path d="M0,7.99077956 C0,3.57759387 3.57380182,0 8.00969143,0 L70.9903086,0 C75.413939,0 79,3.58884202 79,8.00800091 L79,59.1259766 L79,65.3994141 C79,69 83,75 83,75 L7.99606002,75 C3.57995801,75 0,71.4204654 0,67.0092204 L0,7.99077956 Z" id="path-1"></path>
        <mask id="mask-2" maskContentUnits="userSpaceOnUse" maskUnits="objectBoundingBox" x="0" y="0" width="83" height="75" fill="white">
            <use xlink:href="#path-1"></use>
        </mask>
    </defs>
    <g id="Page-1" stroke="none" stroke-width="1" fill="none" fill-rule="evenodd">
        <g id="Group-4">
            <path d="M12,43 L67,43" id="Line" stroke="#FFFFFF" stroke-width="4" stroke-linecap="square"></path>
            <path d="M44.5,32 L67.5,32" id="Line" stroke="#FFFFFF" stroke-width="4" stroke-linecap="square"></path>
            <path d="M47,53 L66.5,53" id="Line-Copy-4" stroke="#FFFFFF" stroke-width="4" stroke-linecap="square"></path>
            <path d="M44.5,21 L67.5,21" id="Line-Copy-2" stroke="#FFFFFF" stroke-width="4" stroke-linecap="square"></path>
            <path d="M44.5,10 L67.5,10" id="Line-Copy-3" stroke="#FFFFFF" stroke-width="4" stroke-linecap="square"></path>
            <rect id="Rectangle-5" fill="#FFFFFF" x="8" y="8" width="26" height="26" rx="4"></rect>
            <circle id="Oval-13" fill="#FFFFFF" cx="69" cy="53" r="2"></circle>
            <circle id="Oval-13-Copy" fill="#FFFFFF" cx="45" cy="53" r="2"></circle>
            <path d="M47,64 L66.5,64" id="Line-Copy-5" stroke="#FFFFFF" stroke-width="4" stroke-linecap="square"></path>
            <circle id="Oval-13-Copy-3" fill="#FFFFFF" cx="69" cy="64" r="2"></circle>
            <circle id="Oval-13-Copy-2" fill="#FFFFFF" cx="45" cy="64" r="2"></circle>
            <path d="M12,64 L31.5,64" id="Line-Copy-6" stroke="#FFFFFF" stroke-width="4" stroke-linecap="square"></path>
            <circle id="Oval-13-Copy-5" fill="#FFFFFF" cx="34" cy="64" r="2"></circle>
            <circle id="Oval-13-Copy-4" fill="#FFFFFF" cx="10" cy="64" r="2"></circle>
            <path d="M12,53 L31.5,53" id="Line-Copy-7" stroke="#FFFFFF" stroke-width="4" stroke-linecap="square"></path>
            <circle id="Oval-13-Copy-7" fill="#FFFFFF" cx="34" cy="53" r="2"></circle>
            <circle id="Oval-13-Copy-6" fill="#FFFFFF" cx="10" cy="53" r="2"></circle>
            <circle id="Oval-13-Copy-8" fill="#FFFFFF" cx="10" cy="43" r="2"></circle>
            <circle id="Oval-13-Copy-9" fill="#FFFFFF" cx="69" cy="43" r="2"></circle>
            <circle id="Oval-13-Copy-10" fill="#FFFFFF" cx="69" cy="32" r="2"></circle>
            <circle id="Oval-13-Copy-11" fill="#FFFFFF" cx="69" cy="21" r="2"></circle>
            <circle id="Oval-13-Copy-12" fill="#FFFFFF" cx="69" cy="10" r="2"></circle>
            <circle id="Oval-13-Copy-13" fill="#FFFFFF" cx="43" cy="10" r="2"></circle>
            <circle id="Oval-13-Copy-14" fill="#FFFFFF" cx="43" cy="21" r="2"></circle>
            <circle id="Oval-13-Copy-15" fill="#FFFFFF" cx="43" cy="32" r="2"></circle>
            <path d="M79.625,7.5 L82.9991726,7.5 C84.6564838,7.5 86,8.8480904 86,10.5069561 L86,69.4865885 C86,71.6979364 84.2046438,73.4905875 82,73.4905867 L78,73.4905853" id="Line" stroke="#FFFFFF" stroke-width="3" stroke-linecap="square"></path>
            <use id="Path-6" stroke="#FFFFFF" mask="url(#mask-2)" stroke-width="6" xlink:href="#path-1"></use>
        </g>
    </g>
</svg>